Coordinates
version=1
nRows=7
nColumns=40
inDegrees=yes

Units are S.I. units (second, meters, Newtons, ...)
Angles are in degrees.

endheader
time	pelvis_tilt	pelvis_list	pelvis_rotation	pelvis_tx	pelvis_ty	pelvis_tz	hip_flexion_r	hip_adduction_r	hip_rotation_r	knee_angle_r	knee_angle_r_beta	ankle_angle_r	subtalar_angle_r	mtp_angle_r	hip_flexion_l	hip_adduction_l	hip_rotation_l	knee_angle_l	knee_angle_l_beta	ankle_angle_l	subtalar_angle_l	mtp_angle_l	lumbar_extension	lumbar_bending	lumbar_rotation	arm_flex_r	arm_add_r	arm_rot_r	elbow_flex_r	pro_sup_r	wrist_flex_r	wrist_dev_r	arm_flex_l	arm_add_l	arm_rot_l	elbow_flex_l	pro_sup_l	wrist_flex_l	wrist_dev_l
     12.05250000	     -2.87771197	     -4.72436868	      0.20883185	      0.99357626	      0.92250972	      0.46660127	     20.84853606	      2.72021067	    -11.93611451	     21.52163849	     21.52163849	      5.84303158	     -4.50874689	     -2.87412994	      7.21079878	    -10.52237006	     -7.00314155	     47.17029236	     47.17029236	      7.88469824	    -16.52324249	    -10.74193071	     -8.75852783	      7.46406510	      1.63154099	      5.03214007	    -14.15446212	     -9.83990746	     42.38275574	     45.75446011	      0.00000000	      0.00000000	     10.79227762	     -8.23135606	     -2.44139895	     36.89329956	     46.91776027	      0.00000000	      0.00000000
     12.06571429	     -2.76436366	     -4.99259302	      0.64743484	      0.99377425	      0.92318384	      0.46881493	     20.05833679	      3.05145427	    -12.46660796	     21.35289725	     21.35289725	      6.32185345	     -4.27658143	     -3.03271297	      9.56056654	    -11.36582824	     -6.00308683	     51.48181235	     51.48181235	      5.87500768	    -17.30792718	     -9.68274786	     -8.88973175	      7.68298147	      1.78241427	      6.41572798	    -14.66816549	     -9.88620715	     43.33759127	     45.72971497	      0.00000000	      0.00000000	      9.61735359	     -8.09278606	     -2.46568115	     35.59993472	     46.89235522	      0.00000000	      0.00000000
     12.07892857	     -2.73935781	     -5.02961804	      1.02882621	      0.99358553	      0.92372322	      0.47071639	     19.44676916	      3.05517044	    -13.16588984	     21.33450400	     21.33450400	      6.89142795	     -3.52325027	     -3.18784344	     12.27270030	    -11.61354192	     -4.66443841	     56.01751464	     56.01751464	      6.73970337	    -17.01008114	     -1.56428051	     -8.92265242	      7.61790382	      2.15627932	      7.18496696	    -15.55085825	     -8.80781397	     45.87069884	     45.58890289	      0.00000000	      0.00000000	      9.64291699	     -7.66243126	     -3.18074362	     31.35615324	     46.92338095	      0.00000000	      0.00000000
     12.09214286	     -2.71835327	     -5.17698719	      1.38427710	      0.99317109	      0.92419657	      0.47265423	     18.82172983	      3.23075046	    -13.75474927	     21.23168426	     21.23168426	      7.38984004	     -2.98327599	     -3.16699505	     14.80978459	    -12.01856603	     -3.57026534	     59.75449326	     59.75449326	      6.49440160	    -17.14972502	      2.73077174	     -9.00859746	      7.68498213	      2.35224771	      8.42167845	    -16.19660694	     -8.47781787	     47.64800506	     45.52291931	      0.00000000	      0.00000000	      8.71304585	     -7.51526137	     -3.80134063	     29.57435128	     46.93335286	      0.00000000	      0.00000000
     12.10535714	     -2.69012608	     -5.29662192	      1.70112503	      0.99258615	      0.92473169	      0.47457037	     18.18874451	      3.39860353	    -14.30542334	     21.10402835	     21.10402835	      7.78896060	     -2.49972723	     -3.22638610	     17.12603631	    -12.36217067	     -2.66289782	     62.69535365	     62.69535365	      5.62346787	    -17.60230235	      4.30824037	     -9.12502026	      7.71803594	      2.36095747	     10.03174854	    -16.55285890	     -8.48117195	     48.95030069	     45.48799291	      0.00000000	      0.00000000	      7.44685232	     -7.62793028	     -3.89320938	     28.32323216	     46.90411298	      0.00000000	      0.00000000
     12.11857143	     -2.65642471	     -5.45398751	      1.92462706	      0.99176049	      0.92531128	      0.47645264	     17.53708052	      3.67300332	    -14.59719043	     20.88755664	     20.88755664	      8.10552426	     -2.19857632	     -3.25852874	     19.31061926	    -12.72669688	     -1.91587056	     65.04188460	     65.04188460	      4.87100891	    -17.97744756	      4.82244356	     -9.26165806	      7.78488350	      2.96241054	     11.48789156	    -17.26953041	     -8.62292471	     49.72781635	     45.47593382	      0.00000000	      0.00000000	      6.39424664	     -7.63387464	     -3.91088075	     27.70760612	     46.88237207	      0.00000000	      0.00000000
     12.13178571	     -2.73934099	     -5.45787847	      2.19782765	      0.99072118	      0.92593702	      0.47796492	     17.01749077	      3.65935445	    -15.28066364	     20.74057328	     20.74057328	      8.66345333	     -1.18130713	     -2.88029934	     21.68488782	    -12.67823997	     -1.03524811	     67.09586474	     67.09586474	      6.07415426	    -17.89434043	      9.61391908	     -9.28899988	      7.69063037	      3.13144744	     12.59426075	    -17.92797390	     -7.82414124	     52.03420586	     45.37471850	      0.00000000	      0.00000000	      5.44726673	     -7.70618361	     -3.95356578	     26.07020355	     46.83006162	      0.00000000	      0.00000000
